<svg xmlns="http://www.w3.org/2000/svg" xmlns:xlink="http://www.w3.org/1999/xlink" width="300" zoomAndPan="magnify" viewBox="0 0 224.87999 38.999999" height="52" preserveAspectRatio="xMidYMid meet" version="1.0"><defs><g/><clipPath id="5d64155886"><path d="M 6.148438 1.175781 L 32.382812 1.175781 L 32.382812 21 L 6.148438 21 Z M 6.148438 1.175781 " clip-rule="nonzero"/></clipPath><clipPath id="ac9436c0e2"><path d="M 9 19 L 15 19 L 15 24.414062 L 9 24.414062 Z M 9 19 " clip-rule="nonzero"/></clipPath><clipPath id="b8143cf228"><path d="M 23 19 L 29 19 L 29 24.414062 L 23 24.414062 Z M 23 19 " clip-rule="nonzero"/></clipPath><clipPath id="fab79f6d2e"><path d="M 54.175781 18 L 85.65625 18 L 85.65625 23.1875 L 54.175781 23.1875 Z M 54.175781 18 " clip-rule="nonzero"/></clipPath><clipPath id="d8a6a5ee6c"><path d="M 58 2.207031 L 82 2.207031 L 82 17 L 58 17 Z M 58 2.207031 " clip-rule="nonzero"/></clipPath><clipPath id="99ff3862ec"><path d="M 109 1.414062 L 131 1.414062 L 131 26.148438 L 109 26.148438 Z M 109 1.414062 " clip-rule="nonzero"/></clipPath><clipPath id="c5c98b7add"><path d="M 195.617188 3.636719 L 217.355469 3.636719 L 217.355469 25.375 L 195.617188 25.375 Z M 195.617188 3.636719 " clip-rule="nonzero"/></clipPath><clipPath id="e4e2b9914f"><path d="M 152 2.179688 L 173.878906 2.179688 L 173.878906 26.917969 L 152 26.917969 Z M 152 2.179688 " clip-rule="nonzero"/></clipPath></defs><g clip-path="url(#5d64155886)"><path fill="#000000" d="M 30.375 20.933594 L 8.042969 20.933594 C 7.785156 20.933594 7.535156 20.882812 7.296875 20.78125 C 7.058594 20.679688 6.847656 20.539062 6.664062 20.351562 C 6.480469 20.167969 6.339844 19.953125 6.238281 19.710938 C 6.140625 19.46875 6.089844 19.21875 6.089844 18.957031 L 6.089844 3.132812 C 6.089844 2.871094 6.140625 2.617188 6.238281 2.375 C 6.339844 2.132812 6.480469 1.921875 6.664062 1.734375 C 6.847656 1.550781 7.058594 1.40625 7.296875 1.304688 C 7.535156 1.207031 7.785156 1.15625 8.042969 1.15625 L 30.375 1.15625 C 30.632812 1.15625 30.882812 1.207031 31.121094 1.304688 C 31.359375 1.40625 31.570312 1.550781 31.753906 1.734375 C 31.9375 1.921875 32.078125 2.132812 32.175781 2.375 C 32.277344 2.617188 32.328125 2.871094 32.328125 3.132812 L 32.328125 18.957031 C 32.328125 19.21875 32.277344 19.46875 32.175781 19.710938 C 32.078125 19.953125 31.9375 20.167969 31.753906 20.351562 C 31.570312 20.539062 31.359375 20.679688 31.121094 20.78125 C 30.882812 20.882812 30.632812 20.933594 30.375 20.933594 Z M 8.042969 2.851562 C 7.96875 2.851562 7.902344 2.878906 7.847656 2.933594 C 7.792969 2.988281 7.765625 3.054688 7.765625 3.132812 L 7.765625 18.957031 C 7.765625 19.035156 7.792969 19.101562 7.847656 19.15625 C 7.902344 19.210938 7.96875 19.238281 8.042969 19.238281 L 30.375 19.238281 C 30.449219 19.238281 30.515625 19.210938 30.570312 19.15625 C 30.625 19.101562 30.652344 19.035156 30.652344 18.957031 L 30.652344 3.132812 C 30.652344 3.054688 30.625 2.988281 30.570312 2.933594 C 30.515625 2.878906 30.449219 2.851562 30.375 2.851562 Z M 8.042969 2.851562 " fill-opacity="1" fill-rule="nonzero"/></g><g clip-path="url(#ac9436c0e2)"><path fill="#000000" d="M 10.277344 24.324219 C 9.90625 24.324219 9.648438 24.148438 9.503906 23.800781 C 9.363281 23.453125 9.421875 23.144531 9.6875 22.878906 L 13.035156 19.488281 C 13.199219 19.332031 13.394531 19.253906 13.621094 19.257812 C 13.847656 19.261719 14.039062 19.347656 14.199219 19.507812 C 14.355469 19.667969 14.4375 19.863281 14.441406 20.089844 C 14.445312 20.320312 14.371094 20.515625 14.21875 20.683594 L 10.871094 24.074219 C 10.707031 24.242188 10.507812 24.324219 10.277344 24.324219 Z M 10.277344 24.324219 " fill-opacity="1" fill-rule="nonzero"/></g><g clip-path="url(#b8143cf228)"><path fill="#000000" d="M 28.140625 24.324219 C 27.910156 24.324219 27.710938 24.242188 27.546875 24.074219 L 24.199219 20.683594 C 24.046875 20.515625 23.972656 20.320312 23.976562 20.089844 C 23.980469 19.863281 24.058594 19.667969 24.21875 19.507812 C 24.378906 19.347656 24.570312 19.261719 24.796875 19.257812 C 25.023438 19.253906 25.21875 19.332031 25.382812 19.488281 L 28.730469 22.878906 C 28.996094 23.144531 29.054688 23.453125 28.914062 23.800781 C 28.769531 24.148438 28.511719 24.324219 28.140625 24.324219 Z M 28.140625 24.324219 " fill-opacity="1" fill-rule="nonzero"/></g><g clip-path="url(#fab79f6d2e)"><path fill="#000000" d="M 74.457031 21.867188 L 65.375 21.867188 C 65.3125 21.867188 65.269531 21.800781 65.300781 21.746094 L 66 20.402344 C 66.011719 20.375 66.042969 20.359375 66.074219 20.359375 L 73.757812 20.359375 C 73.789062 20.359375 73.816406 20.375 73.832031 20.402344 L 74.53125 21.746094 C 74.558594 21.800781 74.519531 21.867188 74.457031 21.867188 Z M 85.457031 22.019531 L 81.695312 18.261719 C 81.566406 18.136719 81.390625 18.0625 81.210938 18.0625 L 58.621094 18.0625 C 58.4375 18.0625 58.265625 18.136719 58.136719 18.261719 L 54.375 22.019531 C 54.246094 22.148438 54.175781 22.324219 54.175781 22.503906 C 54.175781 22.882812 54.480469 23.1875 54.859375 23.1875 L 84.972656 23.1875 C 85.351562 23.1875 85.65625 22.882812 85.65625 22.503906 C 85.65625 22.324219 85.585938 22.148438 85.457031 22.019531 " fill-opacity="1" fill-rule="nonzero"/></g><g clip-path="url(#d8a6a5ee6c)"><path fill="#000000" d="M 80.367188 2.214844 L 59.464844 2.214844 C 58.859375 2.214844 58.363281 2.710938 58.363281 3.3125 L 58.363281 15.710938 C 58.363281 16.3125 58.859375 16.808594 59.464844 16.808594 L 80.367188 16.808594 C 80.972656 16.808594 81.46875 16.3125 81.46875 15.710938 L 81.46875 3.3125 C 81.46875 2.710938 80.972656 2.214844 80.367188 2.214844 Z M 80.195312 3.488281 L 80.195312 15.535156 L 59.636719 15.535156 L 59.636719 3.488281 L 80.195312 3.488281 " fill-opacity="1" fill-rule="nonzero"/></g><g clip-path="url(#99ff3862ec)"><path fill="#000000" d="M 130.675781 10.691406 L 130.675781 16.667969 C 130.675781 17.511719 130 18.199219 129.171875 18.199219 C 128.339844 18.199219 127.667969 17.511719 127.667969 16.667969 L 127.667969 10.691406 C 127.667969 9.851562 128.339844 9.164062 129.171875 9.164062 C 130 9.164062 130.675781 9.851562 130.675781 10.691406 Z M 111.011719 9.164062 C 110.183594 9.164062 109.511719 9.851562 109.511719 10.691406 L 109.511719 16.667969 C 109.511719 17.511719 110.183594 18.199219 111.011719 18.199219 C 111.847656 18.199219 112.519531 17.511719 112.519531 16.667969 L 112.519531 10.691406 C 112.519531 9.851562 111.847656 9.164062 111.011719 9.164062 Z M 113.425781 20.125 C 113.425781 20.773438 113.953125 21.296875 114.601562 21.296875 L 115.941406 21.296875 L 115.941406 24.621094 C 115.941406 25.464844 116.617188 26.148438 117.449219 26.148438 C 118.28125 26.148438 118.953125 25.464844 118.953125 24.621094 L 118.953125 21.296875 L 121.292969 21.296875 L 121.292969 24.625 C 121.292969 25.464844 121.972656 26.148438 122.800781 26.148438 C 123.632812 26.148438 124.304688 25.464844 124.304688 24.625 L 124.304688 21.296875 L 125.644531 21.296875 C 126.292969 21.296875 126.820312 20.773438 126.820312 20.125 L 126.820312 9.210938 L 113.425781 9.210938 Z M 126.789062 8.238281 L 113.398438 8.238281 C 113.570312 6.210938 114.953125 4.472656 116.917969 3.558594 L 115.683594 1.757812 C 115.609375 1.652344 115.625 1.511719 115.722656 1.445312 C 115.816406 1.382812 115.957031 1.414062 116.03125 1.519531 L 117.316406 3.386719 C 118.164062 3.054688 119.101562 2.867188 120.09375 2.867188 C 121.085938 2.867188 122.023438 3.054688 122.871094 3.386719 L 124.15625 1.519531 C 124.234375 1.414062 124.371094 1.382812 124.464844 1.445312 C 124.5625 1.511719 124.578125 1.652344 124.503906 1.757812 L 123.269531 3.558594 C 125.234375 4.472656 126.617188 6.210938 126.789062 8.238281 Z M 118.011719 5.644531 C 118.011719 5.234375 117.679688 4.90625 117.269531 4.90625 C 116.859375 4.90625 116.527344 5.234375 116.527344 5.644531 C 116.527344 6.054688 116.859375 6.386719 117.269531 6.386719 C 117.679688 6.386719 118.011719 6.054688 118.011719 5.644531 Z M 123.753906 5.644531 C 123.753906 5.234375 123.421875 4.90625 123.011719 4.90625 C 122.601562 4.90625 122.269531 5.234375 122.269531 5.644531 C 122.269531 6.054688 122.601562 6.386719 123.011719 6.386719 C 123.421875 6.386719 123.753906 6.054688 123.753906 5.644531 Z M 123.753906 5.644531 " fill-opacity="1" fill-rule="evenodd"/></g><g clip-path="url(#c5c98b7add)"><path fill="#000000" d="M 195.617188 6.71875 L 204.5 5.515625 L 204.503906 14.050781 L 195.625 14.101562 Z M 204.496094 15.035156 L 204.503906 23.582031 L 195.625 22.363281 L 195.625 14.976562 Z M 205.574219 5.359375 L 217.355469 3.644531 L 217.355469 13.945312 L 205.574219 14.039062 L 205.574219 5.355469 Z M 217.355469 15.117188 L 217.355469 25.371094 L 205.574219 23.714844 L 205.558594 15.097656 Z M 217.355469 15.117188 " fill-opacity="1" fill-rule="nonzero"/></g><g clip-path="url(#e4e2b9914f)"><path fill="#000000" d="M 167.546875 2.449219 C 167.457031 2.425781 167.359375 2.425781 167.261719 2.453125 C 166.179688 2.773438 165.09375 3.511719 164.351562 4.4375 C 163.683594 5.285156 163.109375 6.554688 163.121094 7.882812 C 163.125 8.265625 163.46875 8.558594 163.832031 8.476562 C 164.9375 8.21875 166.0625 7.371094 166.820312 6.425781 C 167.46875 5.480469 167.9375 4.339844 168 3.085938 C 168.019531 2.773438 167.8125 2.511719 167.546875 2.449219 Z M 158.664062 8.492188 C 156.679688 8.492188 154.554688 9.675781 153.277344 11.519531 C 151.433594 14.15625 151.71875 19.160156 154.695312 23.375 C 155.832031 24.957031 157.246094 26.667969 159.089844 26.667969 C 160.792969 26.667969 161.21875 25.613281 163.488281 25.613281 C 165.757812 25.613281 166.179688 26.667969 167.882812 26.667969 C 169.867188 26.667969 171.285156 24.824219 172.417969 23.242188 C 173.011719 22.511719 173.328125 21.972656 173.65625 21.3125 C 173.90625 20.8125 173.71875 20.214844 173.230469 19.945312 C 170.011719 18.167969 169.421875 13.925781 172.203125 11.578125 C 172.71875 11.140625 172.765625 10.347656 172.222656 9.945312 C 171.007812 9.035156 169.617188 8.492188 168.308594 8.492188 C 166.039062 8.492188 165.046875 9.703125 163.488281 9.703125 C 161.925781 9.703125 160.648438 8.492188 158.664062 8.492188 Z M 158.664062 8.492188 " fill-opacity="1" fill-rule="nonzero"/></g><g fill="#000000" fill-opacity="1"><g transform="translate(2.928283, 33.054177)"><g><path d="M 2.34375 0.078125 C 1.976562 0.078125 1.648438 0.0351562 1.359375 -0.046875 C 1.078125 -0.140625 0.835938 -0.257812 0.640625 -0.40625 C 0.453125 -0.5625 0.3125 -0.726562 0.21875 -0.90625 L 0.78125 -1.609375 L 0.875 -1.609375 C 1.039062 -1.367188 1.242188 -1.175781 1.484375 -1.03125 C 1.734375 -0.894531 2.019531 -0.828125 2.34375 -0.828125 C 2.625 -0.828125 2.832031 -0.882812 2.96875 -1 C 3.113281 -1.125 3.1875 -1.289062 3.1875 -1.5 C 3.1875 -1.625 3.160156 -1.726562 3.109375 -1.8125 C 3.066406 -1.894531 2.992188 -1.960938 2.890625 -2.015625 C 2.785156 -2.078125 2.644531 -2.132812 2.46875 -2.1875 L 1.78125 -2.34375 C 1.3125 -2.445312 0.957031 -2.625 0.71875 -2.875 C 0.488281 -3.125 0.375 -3.453125 0.375 -3.859375 C 0.375 -4.160156 0.445312 -4.421875 0.59375 -4.640625 C 0.75 -4.867188 0.96875 -5.046875 1.25 -5.171875 C 1.53125 -5.296875 1.875 -5.359375 2.28125 -5.359375 C 2.6875 -5.359375 3.03125 -5.304688 3.3125 -5.203125 C 3.601562 -5.097656 3.851562 -4.929688 4.0625 -4.703125 L 3.546875 -4 L 3.453125 -4 C 3.296875 -4.15625 3.117188 -4.269531 2.921875 -4.34375 C 2.734375 -4.425781 2.519531 -4.46875 2.28125 -4.46875 C 1.988281 -4.46875 1.765625 -4.414062 1.609375 -4.3125 C 1.460938 -4.21875 1.390625 -4.078125 1.390625 -3.890625 C 1.390625 -3.734375 1.441406 -3.601562 1.546875 -3.5 C 1.648438 -3.40625 1.832031 -3.328125 2.09375 -3.265625 L 2.796875 -3.125 C 3.304688 -3.019531 3.675781 -2.835938 3.90625 -2.578125 C 4.132812 -2.316406 4.25 -1.976562 4.25 -1.5625 C 4.25 -1.226562 4.175781 -0.9375 4.03125 -0.6875 C 3.894531 -0.445312 3.679688 -0.257812 3.390625 -0.125 C 3.109375 0.0078125 2.757812 0.078125 2.34375 0.078125 Z M 2.34375 0.078125 "/></g></g><g transform="translate(7.472143, 33.054177)"><g><path d="M 0.578125 0 L 0.578125 -3.984375 L 1.53125 -3.984375 L 1.53125 -3.453125 L 1.609375 -3.4375 C 1.742188 -3.65625 1.894531 -3.8125 2.0625 -3.90625 C 2.238281 -4.007812 2.460938 -4.0625 2.734375 -4.0625 C 3.035156 -4.0625 3.28125 -4 3.46875 -3.875 C 3.65625 -3.757812 3.789062 -3.585938 3.875 -3.359375 L 3.953125 -3.359375 C 4.066406 -3.597656 4.222656 -3.773438 4.421875 -3.890625 C 4.617188 -4.003906 4.859375 -4.0625 5.140625 -4.0625 C 5.972656 -4.0625 6.390625 -3.601562 6.390625 -2.6875 L 6.390625 0 L 5.390625 0 L 5.390625 -2.5625 C 5.390625 -2.789062 5.34375 -2.957031 5.25 -3.0625 C 5.15625 -3.164062 5.007812 -3.21875 4.8125 -3.21875 C 4.257812 -3.21875 3.984375 -2.847656 3.984375 -2.109375 L 3.984375 0 L 2.984375 0 L 2.984375 -2.5625 C 2.984375 -2.789062 2.9375 -2.957031 2.84375 -3.0625 C 2.75 -3.164062 2.597656 -3.21875 2.390625 -3.21875 C 2.140625 -3.21875 1.941406 -3.128906 1.796875 -2.953125 C 1.648438 -2.785156 1.578125 -2.515625 1.578125 -2.140625 L 1.578125 0 Z M 0.578125 0 "/></g></g><g transform="translate(14.374758, 33.054177)"><g><path d="M 1.5625 0.078125 C 1.300781 0.078125 1.078125 0.03125 0.890625 -0.0625 C 0.703125 -0.15625 0.554688 -0.289062 0.453125 -0.46875 C 0.347656 -0.65625 0.296875 -0.878906 0.296875 -1.140625 C 0.296875 -1.367188 0.347656 -1.5625 0.453125 -1.71875 C 0.554688 -1.882812 0.710938 -2.019531 0.921875 -2.125 C 1.140625 -2.226562 1.414062 -2.304688 1.75 -2.359375 C 1.988281 -2.398438 2.171875 -2.441406 2.296875 -2.484375 C 2.421875 -2.535156 2.503906 -2.585938 2.546875 -2.640625 C 2.597656 -2.703125 2.625 -2.773438 2.625 -2.859375 C 2.625 -2.992188 2.578125 -3.09375 2.484375 -3.15625 C 2.390625 -3.226562 2.242188 -3.265625 2.046875 -3.265625 C 1.816406 -3.265625 1.601562 -3.210938 1.40625 -3.109375 C 1.207031 -3.015625 1.035156 -2.882812 0.890625 -2.71875 L 0.8125 -2.71875 L 0.390625 -3.359375 C 0.597656 -3.578125 0.847656 -3.75 1.140625 -3.875 C 1.429688 -4 1.75 -4.0625 2.09375 -4.0625 C 2.613281 -4.0625 2.992188 -3.945312 3.234375 -3.71875 C 3.472656 -3.5 3.59375 -3.1875 3.59375 -2.78125 L 3.59375 -1.046875 C 3.59375 -0.867188 3.671875 -0.78125 3.828125 -0.78125 C 3.890625 -0.78125 3.945312 -0.789062 4 -0.8125 L 4.046875 -0.796875 L 4.125 -0.09375 C 4.070312 -0.0625 3.992188 -0.03125 3.890625 0 C 3.796875 0.0195312 3.6875 0.03125 3.5625 0.03125 C 3.332031 0.03125 3.148438 -0.015625 3.015625 -0.109375 C 2.878906 -0.203125 2.78125 -0.34375 2.71875 -0.53125 L 2.640625 -0.546875 C 2.453125 -0.128906 2.09375 0.078125 1.5625 0.078125 Z M 1.875 -0.671875 C 2.101562 -0.671875 2.285156 -0.75 2.421875 -0.90625 C 2.566406 -1.0625 2.640625 -1.28125 2.640625 -1.5625 L 2.640625 -1.953125 L 2.5625 -1.96875 C 2.507812 -1.925781 2.429688 -1.882812 2.328125 -1.84375 C 2.234375 -1.8125 2.09375 -1.78125 1.90625 -1.75 C 1.6875 -1.71875 1.53125 -1.65625 1.4375 -1.5625 C 1.34375 -1.476562 1.296875 -1.359375 1.296875 -1.203125 C 1.296875 -1.023438 1.347656 -0.890625 1.453125 -0.796875 C 1.554688 -0.710938 1.695312 -0.671875 1.875 -0.671875 Z M 1.875 -0.671875 "/></g></g><g transform="translate(18.582169, 33.054177)"><g><path d="M 0.578125 0 L 0.578125 -3.984375 L 1.546875 -3.984375 L 1.546875 -3.390625 L 1.625 -3.375 C 1.71875 -3.601562 1.84375 -3.769531 2 -3.875 C 2.15625 -3.976562 2.347656 -4.03125 2.578125 -4.03125 C 2.804688 -4.03125 2.976562 -3.988281 3.09375 -3.90625 L 2.921875 -3.046875 L 2.84375 -3.03125 C 2.78125 -3.050781 2.71875 -3.066406 2.65625 -3.078125 C 2.59375 -3.097656 2.519531 -3.109375 2.4375 -3.109375 C 2.15625 -3.109375 1.941406 -3.007812 1.796875 -2.8125 C 1.648438 -2.613281 1.578125 -2.296875 1.578125 -1.859375 L 1.578125 0 Z M 0.578125 0 "/></g></g><g transform="translate(21.7115, 33.054177)"><g><path d="M 2.75 -0.953125 L 3.015625 -0.203125 C 2.898438 -0.117188 2.757812 -0.0507812 2.59375 0 C 2.4375 0.0507812 2.253906 0.078125 2.046875 0.078125 C 1.617188 0.078125 1.289062 -0.0351562 1.0625 -0.265625 C 0.84375 -0.503906 0.734375 -0.847656 0.734375 -1.296875 L 0.734375 -3.203125 L 0.125 -3.203125 L 0.125 -4 L 0.734375 -4 L 0.734375 -4.765625 L 1.734375 -4.9375 L 1.734375 -4 L 2.859375 -4 L 2.859375 -3.203125 L 1.734375 -3.203125 L 1.734375 -1.375 C 1.734375 -1.175781 1.769531 -1.03125 1.84375 -0.9375 C 1.925781 -0.851562 2.046875 -0.8125 2.203125 -0.8125 C 2.390625 -0.8125 2.546875 -0.859375 2.671875 -0.953125 Z M 2.75 -0.953125 "/></g></g><g transform="translate(24.811888, 33.054177)"><g/></g><g transform="translate(26.559248, 33.054177)"><g><path d="M 4.234375 -5.28125 L 4.234375 -4.40625 L 2.71875 -4.40625 L 2.71875 0 L 1.671875 0 L 1.671875 -4.40625 L 0.140625 -4.40625 L 0.140625 -5.28125 Z M 4.234375 -5.28125 "/></g></g><g transform="translate(30.943928, 33.054177)"><g><path d="M 3.140625 0 L 1.875 0 L 0.09375 -5.28125 L 1.203125 -5.28125 L 2.484375 -1.34375 L 2.578125 -1.34375 L 3.84375 -5.28125 L 4.921875 -5.28125 Z M 3.140625 0 "/></g></g></g><g fill="#000000" fill-opacity="1"><g transform="translate(50.826279, 33.054177)"><g><path d="M 1.734375 -5.28125 L 1.734375 -0.875 L 4.109375 -0.875 L 4.109375 0 L 0.6875 0 L 0.6875 -5.28125 Z M 1.734375 -5.28125 "/></g></g><g transform="translate(55.109663, 33.054177)"><g><path d="M 1.5625 0.078125 C 1.300781 0.078125 1.078125 0.03125 0.890625 -0.0625 C 0.703125 -0.15625 0.554688 -0.289062 0.453125 -0.46875 C 0.347656 -0.65625 0.296875 -0.878906 0.296875 -1.140625 C 0.296875 -1.367188 0.347656 -1.5625 0.453125 -1.71875 C 0.554688 -1.882812 0.710938 -2.019531 0.921875 -2.125 C 1.140625 -2.226562 1.414062 -2.304688 1.75 -2.359375 C 1.988281 -2.398438 2.171875 -2.441406 2.296875 -2.484375 C 2.421875 -2.535156 2.503906 -2.585938 2.546875 -2.640625 C 2.597656 -2.703125 2.625 -2.773438 2.625 -2.859375 C 2.625 -2.992188 2.578125 -3.09375 2.484375 -3.15625 C 2.390625 -3.226562 2.242188 -3.265625 2.046875 -3.265625 C 1.816406 -3.265625 1.601562 -3.210938 1.40625 -3.109375 C 1.207031 -3.015625 1.035156 -2.882812 0.890625 -2.71875 L 0.8125 -2.71875 L 0.390625 -3.359375 C 0.597656 -3.578125 0.847656 -3.75 1.140625 -3.875 C 1.429688 -4 1.75 -4.0625 2.09375 -4.0625 C 2.613281 -4.0625 2.992188 -3.945312 3.234375 -3.71875 C 3.472656 -3.5 3.59375 -3.1875 3.59375 -2.78125 L 3.59375 -1.046875 C 3.59375 -0.867188 3.671875 -0.78125 3.828125 -0.78125 C 3.890625 -0.78125 3.945312 -0.789062 4 -0.8125 L 4.046875 -0.796875 L 4.125 -0.09375 C 4.070312 -0.0625 3.992188 -0.03125 3.890625 0 C 3.796875 0.0195312 3.6875 0.03125 3.5625 0.03125 C 3.332031 0.03125 3.148438 -0.015625 3.015625 -0.109375 C 2.878906 -0.203125 2.78125 -0.34375 2.71875 -0.53125 L 2.640625 -0.546875 C 2.453125 -0.128906 2.09375 0.078125 1.5625 0.078125 Z M 1.875 -0.671875 C 2.101562 -0.671875 2.285156 -0.75 2.421875 -0.90625 C 2.566406 -1.0625 2.640625 -1.28125 2.640625 -1.5625 L 2.640625 -1.953125 L 2.5625 -1.96875 C 2.507812 -1.925781 2.429688 -1.882812 2.328125 -1.84375 C 2.234375 -1.8125 2.09375 -1.78125 1.90625 -1.75 C 1.6875 -1.71875 1.53125 -1.65625 1.4375 -1.5625 C 1.34375 -1.476562 1.296875 -1.359375 1.296875 -1.203125 C 1.296875 -1.023438 1.347656 -0.890625 1.453125 -0.796875 C 1.554688 -0.710938 1.695312 -0.671875 1.875 -0.671875 Z M 1.875 -0.671875 "/></g></g><g transform="translate(59.317075, 33.054177)"><g><path d="M 0.578125 1.609375 L 0.578125 -3.984375 L 1.578125 -3.984375 L 1.578125 -3.46875 L 1.65625 -3.453125 C 1.769531 -3.648438 1.925781 -3.800781 2.125 -3.90625 C 2.320312 -4.007812 2.554688 -4.0625 2.828125 -4.0625 C 3.140625 -4.0625 3.414062 -3.984375 3.65625 -3.828125 C 3.894531 -3.679688 4.082031 -3.453125 4.21875 -3.140625 C 4.351562 -2.835938 4.421875 -2.457031 4.421875 -2 C 4.421875 -1.539062 4.347656 -1.15625 4.203125 -0.84375 C 4.066406 -0.539062 3.875 -0.3125 3.625 -0.15625 C 3.375 0 3.082031 0.078125 2.75 0.078125 C 2.507812 0.078125 2.296875 0.0351562 2.109375 -0.046875 C 1.929688 -0.128906 1.78125 -0.257812 1.65625 -0.4375 L 1.578125 -0.421875 L 1.578125 1.609375 Z M 2.484375 -0.78125 C 2.773438 -0.78125 3 -0.875 3.15625 -1.0625 C 3.3125 -1.257812 3.390625 -1.570312 3.390625 -2 C 3.390625 -2.414062 3.3125 -2.722656 3.15625 -2.921875 C 3 -3.117188 2.773438 -3.21875 2.484375 -3.21875 C 2.203125 -3.21875 1.976562 -3.113281 1.8125 -2.90625 C 1.644531 -2.707031 1.5625 -2.40625 1.5625 -2 C 1.5625 -1.582031 1.644531 -1.273438 1.8125 -1.078125 C 1.976562 -0.878906 2.203125 -0.78125 2.484375 -0.78125 Z M 2.484375 -0.78125 "/></g></g><g transform="translate(64.096086, 33.054177)"><g><path d="M 2.75 -0.953125 L 3.015625 -0.203125 C 2.898438 -0.117188 2.757812 -0.0507812 2.59375 0 C 2.4375 0.0507812 2.253906 0.078125 2.046875 0.078125 C 1.617188 0.078125 1.289062 -0.0351562 1.0625 -0.265625 C 0.84375 -0.503906 0.734375 -0.847656 0.734375 -1.296875 L 0.734375 -3.203125 L 0.125 -3.203125 L 0.125 -4 L 0.734375 -4 L 0.734375 -4.765625 L 1.734375 -4.9375 L 1.734375 -4 L 2.859375 -4 L 2.859375 -3.203125 L 1.734375 -3.203125 L 1.734375 -1.375 C 1.734375 -1.175781 1.769531 -1.03125 1.84375 -0.9375 C 1.925781 -0.851562 2.046875 -0.8125 2.203125 -0.8125 C 2.390625 -0.8125 2.546875 -0.859375 2.671875 -0.953125 Z M 2.75 -0.953125 "/></g></g><g transform="translate(67.196475, 33.054177)"><g><path d="M 2.3125 0.078125 C 1.925781 0.078125 1.582031 0 1.28125 -0.15625 C 0.988281 -0.320312 0.757812 -0.554688 0.59375 -0.859375 C 0.4375 -1.171875 0.359375 -1.550781 0.359375 -2 C 0.359375 -2.4375 0.4375 -2.804688 0.59375 -3.109375 C 0.757812 -3.421875 0.988281 -3.65625 1.28125 -3.8125 C 1.582031 -3.976562 1.925781 -4.0625 2.3125 -4.0625 C 2.707031 -4.0625 3.050781 -3.976562 3.34375 -3.8125 C 3.644531 -3.65625 3.875 -3.421875 4.03125 -3.109375 C 4.195312 -2.804688 4.28125 -2.4375 4.28125 -2 C 4.28125 -1.550781 4.195312 -1.171875 4.03125 -0.859375 C 3.875 -0.554688 3.644531 -0.320312 3.34375 -0.15625 C 3.050781 0 2.707031 0.078125 2.3125 0.078125 Z M 2.3125 -0.78125 C 2.9375 -0.78125 3.25 -1.1875 3.25 -2 C 3.25 -2.414062 3.164062 -2.722656 3 -2.921875 C 2.84375 -3.117188 2.613281 -3.21875 2.3125 -3.21875 C 1.695312 -3.21875 1.390625 -2.8125 1.390625 -2 C 1.390625 -1.1875 1.695312 -0.78125 2.3125 -0.78125 Z M 2.3125 -0.78125 "/></g></g><g transform="translate(71.834395, 33.054177)"><g><path d="M 0.578125 1.609375 L 0.578125 -3.984375 L 1.578125 -3.984375 L 1.578125 -3.46875 L 1.65625 -3.453125 C 1.769531 -3.648438 1.925781 -3.800781 2.125 -3.90625 C 2.320312 -4.007812 2.554688 -4.0625 2.828125 -4.0625 C 3.140625 -4.0625 3.414062 -3.984375 3.65625 -3.828125 C 3.894531 -3.679688 4.082031 -3.453125 4.21875 -3.140625 C 4.351562 -2.835938 4.421875 -2.457031 4.421875 -2 C 4.421875 -1.539062 4.347656 -1.15625 4.203125 -0.84375 C 4.066406 -0.539062 3.875 -0.3125 3.625 -0.15625 C 3.375 0 3.082031 0.078125 2.75 0.078125 C 2.507812 0.078125 2.296875 0.0351562 2.109375 -0.046875 C 1.929688 -0.128906 1.78125 -0.257812 1.65625 -0.4375 L 1.578125 -0.421875 L 1.578125 1.609375 Z M 2.484375 -0.78125 C 2.773438 -0.78125 3 -0.875 3.15625 -1.0625 C 3.3125 -1.257812 3.390625 -1.570312 3.390625 -2 C 3.390625 -2.414062 3.3125 -2.722656 3.15625 -2.921875 C 3 -3.117188 2.773438 -3.21875 2.484375 -3.21875 C 2.203125 -3.21875 1.976562 -3.113281 1.8125 -2.90625 C 1.644531 -2.707031 1.5625 -2.40625 1.5625 -2 C 1.5625 -1.582031 1.644531 -1.273438 1.8125 -1.078125 C 1.976562 -0.878906 2.203125 -0.78125 2.484375 -0.78125 Z M 2.484375 -0.78125 "/></g></g><g transform="translate(76.613407, 33.054177)"><g><path d="M 0.96875 0.75 L 0.015625 0.75 L 2 -5.59375 L 2.953125 -5.59375 Z M 0.96875 0.75 "/></g></g><g transform="translate(79.721031, 33.054177)"><g><path d="M 0.578125 1.609375 L 0.578125 -3.984375 L 1.578125 -3.984375 L 1.578125 -3.46875 L 1.65625 -3.453125 C 1.769531 -3.648438 1.925781 -3.800781 2.125 -3.90625 C 2.320312 -4.007812 2.554688 -4.0625 2.828125 -4.0625 C 3.140625 -4.0625 3.414062 -3.984375 3.65625 -3.828125 C 3.894531 -3.679688 4.082031 -3.453125 4.21875 -3.140625 C 4.351562 -2.835938 4.421875 -2.457031 4.421875 -2 C 4.421875 -1.539062 4.347656 -1.15625 4.203125 -0.84375 C 4.066406 -0.539062 3.875 -0.3125 3.625 -0.15625 C 3.375 0 3.082031 0.078125 2.75 0.078125 C 2.507812 0.078125 2.296875 0.0351562 2.109375 -0.046875 C 1.929688 -0.128906 1.78125 -0.257812 1.65625 -0.4375 L 1.578125 -0.421875 L 1.578125 1.609375 Z M 2.484375 -0.78125 C 2.773438 -0.78125 3 -0.875 3.15625 -1.0625 C 3.3125 -1.257812 3.390625 -1.570312 3.390625 -2 C 3.390625 -2.414062 3.3125 -2.722656 3.15625 -2.921875 C 3 -3.117188 2.773438 -3.21875 2.484375 -3.21875 C 2.203125 -3.21875 1.976562 -3.113281 1.8125 -2.90625 C 1.644531 -2.707031 1.5625 -2.40625 1.5625 -2 C 1.5625 -1.582031 1.644531 -1.273438 1.8125 -1.078125 C 1.976562 -0.878906 2.203125 -0.78125 2.484375 -0.78125 Z M 2.484375 -0.78125 "/></g></g><g transform="translate(84.500043, 33.054177)"><g><path d="M 2.328125 0.078125 C 1.941406 0.078125 1.597656 0 1.296875 -0.15625 C 1.003906 -0.320312 0.773438 -0.5625 0.609375 -0.875 C 0.441406 -1.1875 0.359375 -1.5625 0.359375 -2 C 0.359375 -2.4375 0.441406 -2.804688 0.609375 -3.109375 C 0.773438 -3.421875 1.003906 -3.65625 1.296875 -3.8125 C 1.585938 -3.976562 1.925781 -4.0625 2.3125 -4.0625 C 3.144531 -4.0625 3.679688 -3.757812 3.921875 -3.15625 L 3.234375 -2.65625 L 3.15625 -2.65625 C 3.070312 -2.84375 2.960938 -2.984375 2.828125 -3.078125 C 2.703125 -3.171875 2.53125 -3.21875 2.3125 -3.21875 C 2.019531 -3.21875 1.789062 -3.113281 1.625 -2.90625 C 1.46875 -2.707031 1.390625 -2.40625 1.390625 -2 C 1.390625 -1.582031 1.46875 -1.273438 1.625 -1.078125 C 1.789062 -0.878906 2.023438 -0.78125 2.328125 -0.78125 C 2.546875 -0.78125 2.726562 -0.835938 2.875 -0.953125 C 3.03125 -1.066406 3.140625 -1.234375 3.203125 -1.453125 L 3.28125 -1.46875 L 3.984375 -1.078125 C 3.890625 -0.734375 3.703125 -0.453125 3.421875 -0.234375 C 3.148438 -0.0234375 2.785156 0.078125 2.328125 0.078125 Z M 2.328125 0.078125 "/></g></g></g><g fill="#000000" fill-opacity="1"><g transform="translate(105.564058, 33.054177)"><g><path d="M 5.078125 0 L 3.96875 0 L 3.578125 -1.21875 L 1.546875 -1.21875 L 1.15625 0 L 0.078125 0 L 1.90625 -5.28125 L 3.25 -5.28125 Z M 2.515625 -4.1875 L 1.828125 -2.09375 L 3.28125 -2.09375 L 2.609375 -4.1875 Z M 2.515625 -4.1875 "/></g></g><g transform="translate(110.719313, 33.054177)"><g><path d="M 0.578125 0 L 0.578125 -3.984375 L 1.53125 -3.984375 L 1.53125 -3.40625 L 1.609375 -3.390625 C 1.859375 -3.835938 2.265625 -4.0625 2.828125 -4.0625 C 3.285156 -4.0625 3.617188 -3.9375 3.828125 -3.6875 C 4.046875 -3.4375 4.15625 -3.070312 4.15625 -2.59375 L 4.15625 0 L 3.15625 0 L 3.15625 -2.46875 C 3.15625 -2.738281 3.101562 -2.929688 3 -3.046875 C 2.894531 -3.160156 2.722656 -3.21875 2.484375 -3.21875 C 2.203125 -3.21875 1.976562 -3.125 1.8125 -2.9375 C 1.65625 -2.75 1.578125 -2.457031 1.578125 -2.0625 L 1.578125 0 Z M 0.578125 0 "/></g></g><g transform="translate(115.39341, 33.054177)"><g><path d="M 1.96875 0.078125 C 1.65625 0.078125 1.375 0 1.125 -0.15625 C 0.882812 -0.3125 0.695312 -0.539062 0.5625 -0.84375 C 0.425781 -1.15625 0.359375 -1.539062 0.359375 -2 C 0.359375 -2.445312 0.425781 -2.828125 0.5625 -3.140625 C 0.707031 -3.453125 0.90625 -3.679688 1.15625 -3.828125 C 1.40625 -3.984375 1.691406 -4.0625 2.015625 -4.0625 C 2.265625 -4.0625 2.476562 -4.019531 2.65625 -3.9375 C 2.84375 -3.851562 3 -3.71875 3.125 -3.53125 L 3.203125 -3.5625 L 3.203125 -5.59375 L 4.203125 -5.59375 L 4.203125 0 L 3.203125 0 L 3.203125 -0.515625 L 3.125 -0.53125 C 3.019531 -0.34375 2.867188 -0.191406 2.671875 -0.078125 C 2.484375 0.0234375 2.25 0.078125 1.96875 0.078125 Z M 2.296875 -0.78125 C 2.578125 -0.78125 2.800781 -0.878906 2.96875 -1.078125 C 3.132812 -1.273438 3.21875 -1.582031 3.21875 -2 C 3.21875 -2.40625 3.132812 -2.707031 2.96875 -2.90625 C 2.800781 -3.113281 2.578125 -3.21875 2.296875 -3.21875 C 2.003906 -3.21875 1.78125 -3.117188 1.625 -2.921875 C 1.46875 -2.722656 1.390625 -2.414062 1.390625 -2 C 1.390625 -1.570312 1.46875 -1.257812 1.625 -1.0625 C 1.78125 -0.875 2.003906 -0.78125 2.296875 -0.78125 Z M 2.296875 -0.78125 "/></g></g><g transform="translate(120.17604, 33.054177)"><g><path d="M 0.578125 0 L 0.578125 -3.984375 L 1.546875 -3.984375 L 1.546875 -3.390625 L 1.625 -3.375 C 1.71875 -3.601562 1.84375 -3.769531 2 -3.875 C 2.15625 -3.976562 2.347656 -4.03125 2.578125 -4.03125 C 2.804688 -4.03125 2.976562 -3.988281 3.09375 -3.90625 L 2.921875 -3.046875 L 2.84375 -3.03125 C 2.78125 -3.050781 2.71875 -3.066406 2.65625 -3.078125 C 2.59375 -3.097656 2.519531 -3.109375 2.4375 -3.109375 C 2.15625 -3.109375 1.941406 -3.007812 1.796875 -2.8125 C 1.648438 -2.613281 1.578125 -2.296875 1.578125 -1.859375 L 1.578125 0 Z M 0.578125 0 "/></g></g><g transform="translate(123.30537, 33.054177)"><g><path d="M 2.3125 0.078125 C 1.925781 0.078125 1.582031 0 1.28125 -0.15625 C 0.988281 -0.320312 0.757812 -0.554688 0.59375 -0.859375 C 0.4375 -1.171875 0.359375 -1.550781 0.359375 -2 C 0.359375 -2.4375 0.4375 -2.804688 0.59375 -3.109375 C 0.757812 -3.421875 0.988281 -3.65625 1.28125 -3.8125 C 1.582031 -3.976562 1.925781 -4.0625 2.3125 -4.0625 C 2.707031 -4.0625 3.050781 -3.976562 3.34375 -3.8125 C 3.644531 -3.65625 3.875 -3.421875 4.03125 -3.109375 C 4.195312 -2.804688 4.28125 -2.4375 4.28125 -2 C 4.28125 -1.550781 4.195312 -1.171875 4.03125 -0.859375 C 3.875 -0.554688 3.644531 -0.320312 3.34375 -0.15625 C 3.050781 0 2.707031 0.078125 2.3125 0.078125 Z M 2.3125 -0.78125 C 2.9375 -0.78125 3.25 -1.1875 3.25 -2 C 3.25 -2.414062 3.164062 -2.722656 3 -2.921875 C 2.84375 -3.117188 2.613281 -3.21875 2.3125 -3.21875 C 1.695312 -3.21875 1.390625 -2.8125 1.390625 -2 C 1.390625 -1.1875 1.695312 -0.78125 2.3125 -0.78125 Z M 2.3125 -0.78125 "/></g></g><g transform="translate(127.943291, 33.054177)"><g><path d="M 1.078125 -4.46875 C 0.890625 -4.46875 0.738281 -4.519531 0.625 -4.625 C 0.519531 -4.738281 0.46875 -4.882812 0.46875 -5.0625 C 0.46875 -5.226562 0.519531 -5.363281 0.625 -5.46875 C 0.738281 -5.582031 0.890625 -5.640625 1.078125 -5.640625 C 1.191406 -5.640625 1.296875 -5.613281 1.390625 -5.5625 C 1.484375 -5.507812 1.554688 -5.4375 1.609375 -5.34375 C 1.660156 -5.257812 1.6875 -5.164062 1.6875 -5.0625 C 1.6875 -4.945312 1.660156 -4.84375 1.609375 -4.75 C 1.554688 -4.664062 1.484375 -4.597656 1.390625 -4.546875 C 1.296875 -4.492188 1.191406 -4.46875 1.078125 -4.46875 Z M 0.578125 0 L 0.578125 -3.984375 L 1.578125 -3.984375 L 1.578125 0 Z M 0.578125 0 "/></g></g><g transform="translate(130.092218, 33.054177)"><g><path d="M 1.96875 0.078125 C 1.65625 0.078125 1.375 0 1.125 -0.15625 C 0.882812 -0.3125 0.695312 -0.539062 0.5625 -0.84375 C 0.425781 -1.15625 0.359375 -1.539062 0.359375 -2 C 0.359375 -2.445312 0.425781 -2.828125 0.5625 -3.140625 C 0.707031 -3.453125 0.90625 -3.679688 1.15625 -3.828125 C 1.40625 -3.984375 1.691406 -4.0625 2.015625 -4.0625 C 2.265625 -4.0625 2.476562 -4.019531 2.65625 -3.9375 C 2.84375 -3.851562 3 -3.71875 3.125 -3.53125 L 3.203125 -3.5625 L 3.203125 -5.59375 L 4.203125 -5.59375 L 4.203125 0 L 3.203125 0 L 3.203125 -0.515625 L 3.125 -0.53125 C 3.019531 -0.34375 2.867188 -0.191406 2.671875 -0.078125 C 2.484375 0.0234375 2.25 0.078125 1.96875 0.078125 Z M 2.296875 -0.78125 C 2.578125 -0.78125 2.800781 -0.878906 2.96875 -1.078125 C 3.132812 -1.273438 3.21875 -1.582031 3.21875 -2 C 3.21875 -2.40625 3.132812 -2.707031 2.96875 -2.90625 C 2.800781 -3.113281 2.578125 -3.21875 2.296875 -3.21875 C 2.003906 -3.21875 1.78125 -3.117188 1.625 -2.921875 C 1.46875 -2.722656 1.390625 -2.414062 1.390625 -2 C 1.390625 -1.570312 1.46875 -1.257812 1.625 -1.0625 C 1.78125 -0.875 2.003906 -0.78125 2.296875 -0.78125 Z M 2.296875 -0.78125 "/></g></g></g><g fill="#000000" fill-opacity="1"><g transform="translate(157.016779, 33.803776)"><g><path d="M 1.734375 0 L 0.6875 0 L 0.6875 -5.28125 L 1.734375 -5.28125 Z M 1.734375 0 "/></g></g><g transform="translate(159.440654, 33.803776)"><g><path d="M 2.875 0.078125 C 2.394531 0.078125 1.96875 -0.0195312 1.59375 -0.21875 C 1.226562 -0.414062 0.941406 -0.71875 0.734375 -1.125 C 0.523438 -1.53125 0.421875 -2.035156 0.421875 -2.640625 C 0.421875 -3.242188 0.523438 -3.75 0.734375 -4.15625 C 0.941406 -4.5625 1.226562 -4.863281 1.59375 -5.0625 C 1.96875 -5.257812 2.394531 -5.359375 2.875 -5.359375 C 3.363281 -5.359375 3.789062 -5.257812 4.15625 -5.0625 C 4.53125 -4.875 4.820312 -4.570312 5.03125 -4.15625 C 5.238281 -3.75 5.34375 -3.242188 5.34375 -2.640625 C 5.34375 -2.035156 5.238281 -1.53125 5.03125 -1.125 C 4.820312 -0.71875 4.53125 -0.414062 4.15625 -0.21875 C 3.789062 -0.0195312 3.363281 0.078125 2.875 0.078125 Z M 2.875 -0.828125 C 3.332031 -0.828125 3.675781 -0.972656 3.90625 -1.265625 C 4.144531 -1.554688 4.265625 -2.015625 4.265625 -2.640625 C 4.265625 -3.273438 4.144531 -3.734375 3.90625 -4.015625 C 3.675781 -4.304688 3.332031 -4.453125 2.875 -4.453125 C 2.425781 -4.453125 2.082031 -4.304688 1.84375 -4.015625 C 1.613281 -3.734375 1.5 -3.273438 1.5 -2.640625 C 1.5 -2.015625 1.613281 -1.554688 1.84375 -1.265625 C 2.082031 -0.972656 2.425781 -0.828125 2.875 -0.828125 Z M 2.875 -0.828125 "/></g></g><g transform="translate(165.203686, 33.803776)"><g><path d="M 2.34375 0.078125 C 1.976562 0.078125 1.648438 0.0351562 1.359375 -0.046875 C 1.078125 -0.140625 0.835938 -0.257812 0.640625 -0.40625 C 0.453125 -0.5625 0.3125 -0.726562 0.21875 -0.90625 L 0.78125 -1.609375 L 0.875 -1.609375 C 1.039062 -1.367188 1.242188 -1.175781 1.484375 -1.03125 C 1.734375 -0.894531 2.019531 -0.828125 2.34375 -0.828125 C 2.625 -0.828125 2.832031 -0.882812 2.96875 -1 C 3.113281 -1.125 3.1875 -1.289062 3.1875 -1.5 C 3.1875 -1.625 3.160156 -1.726562 3.109375 -1.8125 C 3.066406 -1.894531 2.992188 -1.960938 2.890625 -2.015625 C 2.785156 -2.078125 2.644531 -2.132812 2.46875 -2.1875 L 1.78125 -2.34375 C 1.3125 -2.445312 0.957031 -2.625 0.71875 -2.875 C 0.488281 -3.125 0.375 -3.453125 0.375 -3.859375 C 0.375 -4.160156 0.445312 -4.421875 0.59375 -4.640625 C 0.75 -4.867188 0.96875 -5.046875 1.25 -5.171875 C 1.53125 -5.296875 1.875 -5.359375 2.28125 -5.359375 C 2.6875 -5.359375 3.03125 -5.304688 3.3125 -5.203125 C 3.601562 -5.097656 3.851562 -4.929688 4.0625 -4.703125 L 3.546875 -4 L 3.453125 -4 C 3.296875 -4.15625 3.117188 -4.269531 2.921875 -4.34375 C 2.734375 -4.425781 2.519531 -4.46875 2.28125 -4.46875 C 1.988281 -4.46875 1.765625 -4.414062 1.609375 -4.3125 C 1.460938 -4.21875 1.390625 -4.078125 1.390625 -3.890625 C 1.390625 -3.734375 1.441406 -3.601562 1.546875 -3.5 C 1.648438 -3.40625 1.832031 -3.328125 2.09375 -3.265625 L 2.796875 -3.125 C 3.304688 -3.019531 3.675781 -2.835938 3.90625 -2.578125 C 4.132812 -2.316406 4.25 -1.976562 4.25 -1.5625 C 4.25 -1.226562 4.175781 -0.9375 4.03125 -0.6875 C 3.894531 -0.445312 3.679688 -0.257812 3.390625 -0.125 C 3.109375 0.0078125 2.757812 0.078125 2.34375 0.078125 Z M 2.34375 0.078125 "/></g></g></g><g fill="#000000" fill-opacity="1"><g transform="translate(189.016149, 33.803776)"><g><path d="M 2.53125 0 L 1.359375 0 L 0.140625 -5.28125 L 1.1875 -5.28125 L 1.984375 -1.5625 L 2.078125 -1.5625 L 3.015625 -5.28125 L 3.921875 -5.28125 L 4.875 -1.5625 L 4.96875 -1.5625 L 5.78125 -5.28125 L 6.78125 -5.28125 L 5.578125 0 L 4.40625 0 L 3.46875 -3.40625 L 3.40625 -3.40625 Z M 2.53125 0 "/></g></g><g transform="translate(195.94047, 33.803776)"><g><path d="M 1.078125 -4.46875 C 0.890625 -4.46875 0.738281 -4.519531 0.625 -4.625 C 0.519531 -4.738281 0.46875 -4.882812 0.46875 -5.0625 C 0.46875 -5.226562 0.519531 -5.363281 0.625 -5.46875 C 0.738281 -5.582031 0.890625 -5.640625 1.078125 -5.640625 C 1.191406 -5.640625 1.296875 -5.613281 1.390625 -5.5625 C 1.484375 -5.507812 1.554688 -5.4375 1.609375 -5.34375 C 1.660156 -5.257812 1.6875 -5.164062 1.6875 -5.0625 C 1.6875 -4.945312 1.660156 -4.84375 1.609375 -4.75 C 1.554688 -4.664062 1.484375 -4.597656 1.390625 -4.546875 C 1.296875 -4.492188 1.191406 -4.46875 1.078125 -4.46875 Z M 0.578125 0 L 0.578125 -3.984375 L 1.578125 -3.984375 L 1.578125 0 Z M 0.578125 0 "/></g></g><g transform="translate(198.089398, 33.803776)"><g><path d="M 0.578125 0 L 0.578125 -3.984375 L 1.53125 -3.984375 L 1.53125 -3.40625 L 1.609375 -3.390625 C 1.859375 -3.835938 2.265625 -4.0625 2.828125 -4.0625 C 3.285156 -4.0625 3.617188 -3.9375 3.828125 -3.6875 C 4.046875 -3.4375 4.15625 -3.070312 4.15625 -2.59375 L 4.15625 0 L 3.15625 0 L 3.15625 -2.46875 C 3.15625 -2.738281 3.101562 -2.929688 3 -3.046875 C 2.894531 -3.160156 2.722656 -3.21875 2.484375 -3.21875 C 2.203125 -3.21875 1.976562 -3.125 1.8125 -2.9375 C 1.65625 -2.75 1.578125 -2.457031 1.578125 -2.0625 L 1.578125 0 Z M 0.578125 0 "/></g></g><g transform="translate(202.763496, 33.803776)"><g><path d="M 2.3125 0.078125 C 1.925781 0.078125 1.582031 0 1.28125 -0.15625 C 0.988281 -0.320312 0.757812 -0.554688 0.59375 -0.859375 C 0.4375 -1.171875 0.359375 -1.550781 0.359375 -2 C 0.359375 -2.4375 0.4375 -2.804688 0.59375 -3.109375 C 0.757812 -3.421875 0.988281 -3.65625 1.28125 -3.8125 C 1.582031 -3.976562 1.925781 -4.0625 2.3125 -4.0625 C 2.707031 -4.0625 3.050781 -3.976562 3.34375 -3.8125 C 3.644531 -3.65625 3.875 -3.421875 4.03125 -3.109375 C 4.195312 -2.804688 4.28125 -2.4375 4.28125 -2 C 4.28125 -1.550781 4.195312 -1.171875 4.03125 -0.859375 C 3.875 -0.554688 3.644531 -0.320312 3.34375 -0.15625 C 3.050781 0 2.707031 0.078125 2.3125 0.078125 Z M 2.3125 -0.78125 C 2.9375 -0.78125 3.25 -1.1875 3.25 -2 C 3.25 -2.414062 3.164062 -2.722656 3 -2.921875 C 2.84375 -3.117188 2.613281 -3.21875 2.3125 -3.21875 C 1.695312 -3.21875 1.390625 -2.8125 1.390625 -2 C 1.390625 -1.1875 1.695312 -0.78125 2.3125 -0.78125 Z M 2.3125 -0.78125 "/></g></g><g transform="translate(207.401416, 33.803776)"><g><path d="M 1.96875 0.078125 C 1.65625 0.078125 1.375 0 1.125 -0.15625 C 0.882812 -0.3125 0.695312 -0.539062 0.5625 -0.84375 C 0.425781 -1.15625 0.359375 -1.539062 0.359375 -2 C 0.359375 -2.445312 0.425781 -2.828125 0.5625 -3.140625 C 0.707031 -3.453125 0.90625 -3.679688 1.15625 -3.828125 C 1.40625 -3.984375 1.691406 -4.0625 2.015625 -4.0625 C 2.265625 -4.0625 2.476562 -4.019531 2.65625 -3.9375 C 2.84375 -3.851562 3 -3.71875 3.125 -3.53125 L 3.203125 -3.5625 L 3.203125 -5.59375 L 4.203125 -5.59375 L 4.203125 0 L 3.203125 0 L 3.203125 -0.515625 L 3.125 -0.53125 C 3.019531 -0.34375 2.867188 -0.191406 2.671875 -0.078125 C 2.484375 0.0234375 2.25 0.078125 1.96875 0.078125 Z M 2.296875 -0.78125 C 2.578125 -0.78125 2.800781 -0.878906 2.96875 -1.078125 C 3.132812 -1.273438 3.21875 -1.582031 3.21875 -2 C 3.21875 -2.40625 3.132812 -2.707031 2.96875 -2.90625 C 2.800781 -3.113281 2.578125 -3.21875 2.296875 -3.21875 C 2.003906 -3.21875 1.78125 -3.117188 1.625 -2.921875 C 1.46875 -2.722656 1.390625 -2.414062 1.390625 -2 C 1.390625 -1.570312 1.46875 -1.257812 1.625 -1.0625 C 1.78125 -0.875 2.003906 -0.78125 2.296875 -0.78125 Z M 2.296875 -0.78125 "/></g></g><g transform="translate(212.184046, 33.803776)"><g><path d="M 2.140625 0 L 1.09375 0 L 0.140625 -3.984375 L 1.078125 -3.984375 L 1.65625 -1.296875 L 1.734375 -1.296875 L 2.5 -3.984375 L 3.359375 -3.984375 L 4.140625 -1.296875 L 4.21875 -1.296875 L 4.78125 -3.984375 L 5.6875 -3.984375 L 4.75 0 L 3.703125 0 L 2.953125 -2.71875 L 2.875 -2.71875 Z M 2.140625 0 "/></g></g><g transform="translate(218.019432, 33.803776)"><g><path d="M 1.859375 0.078125 C 1.585938 0.078125 1.335938 0.046875 1.109375 -0.015625 C 0.890625 -0.078125 0.695312 -0.164062 0.53125 -0.28125 C 0.375 -0.394531 0.257812 -0.523438 0.1875 -0.671875 L 0.734375 -1.265625 L 0.8125 -1.265625 C 0.945312 -1.085938 1.101562 -0.953125 1.28125 -0.859375 C 1.46875 -0.773438 1.664062 -0.734375 1.875 -0.734375 C 2.070312 -0.734375 2.21875 -0.765625 2.3125 -0.828125 C 2.414062 -0.898438 2.46875 -1.003906 2.46875 -1.140625 C 2.46875 -1.242188 2.429688 -1.328125 2.359375 -1.390625 C 2.285156 -1.460938 2.171875 -1.519531 2.015625 -1.5625 L 1.484375 -1.6875 C 1.085938 -1.78125 0.796875 -1.921875 0.609375 -2.109375 C 0.429688 -2.304688 0.34375 -2.554688 0.34375 -2.859375 C 0.34375 -3.097656 0.40625 -3.3125 0.53125 -3.5 C 0.65625 -3.6875 0.832031 -3.828125 1.0625 -3.921875 C 1.289062 -4.015625 1.5625 -4.0625 1.875 -4.0625 C 2.226562 -4.0625 2.523438 -4.007812 2.765625 -3.90625 C 3.003906 -3.800781 3.1875 -3.664062 3.3125 -3.5 L 2.78125 -2.921875 L 2.71875 -2.921875 C 2.601562 -3.046875 2.472656 -3.132812 2.328125 -3.1875 C 2.191406 -3.25 2.039062 -3.28125 1.875 -3.28125 C 1.476562 -3.28125 1.28125 -3.15625 1.28125 -2.90625 C 1.28125 -2.800781 1.316406 -2.71875 1.390625 -2.65625 C 1.460938 -2.59375 1.59375 -2.539062 1.78125 -2.5 L 2.265625 -2.390625 C 2.671875 -2.296875 2.96875 -2.15625 3.15625 -1.96875 C 3.34375 -1.78125 3.4375 -1.523438 3.4375 -1.203125 C 3.4375 -0.941406 3.375 -0.710938 3.25 -0.515625 C 3.125 -0.328125 2.941406 -0.179688 2.703125 -0.078125 C 2.472656 0.0234375 2.191406 0.078125 1.859375 0.078125 Z M 1.859375 0.078125 "/></g></g></g></svg>